ISO-10303-21;
HEADER;
/* Generated by software containing ST-Developer
 * from STEP Tools, Inc. (www.steptools.com) 
 */

FILE_DESCRIPTION(
/* description */ (''),
/* implementation_level */ '2;1');

FILE_NAME(
/* name */ 'Support.step',
/* time_stamp */ '2026-07-11T17:16:45-04:00',
/* author */ (''),
/* organization */ (''),
/* preprocessor_version */ 'ST-DEVELOPER v20.1',
/* originating_system */ 'Autodesk Translation Framework v15.8.0.0',
/* authorisation */ '');

FILE_SCHEMA (('AUTOMOTIVE_DESIGN { 1 0 10303 214 3 1 1 }'));
ENDSEC;

DATA;
#10=MECHANICAL_DESIGN_GEOMETRIC_PRESENTATION_REPRESENTATION('',(#13),#310);
#11=SHAPE_REPRESENTATION_RELATIONSHIP('SRR','None',#317,#12);
#12=ADVANCED_BREP_SHAPE_REPRESENTATION('',(#14),#309);
#13=STYLED_ITEM('',(#326),#14);
#14=MANIFOLD_SOLID_BREP('Body1',#174);
#15=FACE_BOUND('',#39,.T.);
#16=FACE_BOUND('',#41,.T.);
#17=FACE_BOUND('',#46,.T.);
#18=FACE_BOUND('',#48,.T.);
#19=FACE_BOUND('',#50,.T.);
#20=PLANE('',#194);
#21=PLANE('',#197);
#22=PLANE('',#201);
#23=PLANE('',#202);
#24=PLANE('',#203);
#25=PLANE('',#207);
#26=FACE_OUTER_BOUND('',#36,.T.);
#27=FACE_OUTER_BOUND('',#37,.T.);
#28=FACE_OUTER_BOUND('',#38,.T.);
#29=FACE_OUTER_BOUND('',#40,.T.);
#30=FACE_OUTER_BOUND('',#42,.T.);
#31=FACE_OUTER_BOUND('',#43,.T.);
#32=FACE_OUTER_BOUND('',#44,.T.);
#33=FACE_OUTER_BOUND('',#45,.T.);
#34=FACE_OUTER_BOUND('',#47,.T.);
#35=FACE_OUTER_BOUND('',#49,.T.);
#36=EDGE_LOOP('',(#118,#119,#120,#121));
#37=EDGE_LOOP('',(#122,#123,#124,#125));
#38=EDGE_LOOP('',(#126,#127,#128,#129));
#39=EDGE_LOOP('',(#130));
#40=EDGE_LOOP('',(#131));
#41=EDGE_LOOP('',(#132));
#42=EDGE_LOOP('',(#133,#134,#135,#136));
#43=EDGE_LOOP('',(#137,#138,#139,#140));
#44=EDGE_LOOP('',(#141,#142,#143,#144));
#45=EDGE_LOOP('',(#145));
#46=EDGE_LOOP('',(#146));
#47=EDGE_LOOP('',(#147,#148,#149,#150));
#48=EDGE_LOOP('',(#151,#152,#153,#154));
#49=EDGE_LOOP('',(#155,#156,#157,#158));
#50=EDGE_LOOP('',(#159));
#51=LINE('',#266,#62);
#52=LINE('',#272,#63);
#53=LINE('',#277,#64);
#54=LINE('',#281,#65);
#55=LINE('',#290,#66);
#56=LINE('',#291,#67);
#57=LINE('',#294,#68);
#58=LINE('',#295,#69);
#59=LINE('',#298,#70);
#60=LINE('',#299,#71);
#61=LINE('',#304,#72);
#62=VECTOR('',#214,1.525);
#63=VECTOR('',#221,1.525);
#64=VECTOR('',#226,10.);
#65=VECTOR('',#229,10.);
#66=VECTOR('',#240,10.);
#67=VECTOR('',#241,10.);
#68=VECTOR('',#244,10.);
#69=VECTOR('',#245,10.);
#70=VECTOR('',#248,10.);
#71=VECTOR('',#249,10.);
#72=VECTOR('',#256,5.);
#73=CIRCLE('',#189,1.525);
#74=CIRCLE('',#190,1.525);
#75=CIRCLE('',#192,1.525);
#76=CIRCLE('',#193,1.525);
#77=CIRCLE('',#195,3.75);
#78=CIRCLE('',#196,5.);
#79=CIRCLE('',#198,5.);
#80=CIRCLE('',#200,3.75);
#81=CIRCLE('',#204,5.);
#82=CIRCLE('',#206,5.);
#83=VERTEX_POINT('',#263);
#84=VERTEX_POINT('',#265);
#85=VERTEX_POINT('',#269);
#86=VERTEX_POINT('',#271);
#87=VERTEX_POINT('',#275);
#88=VERTEX_POINT('',#276);
#89=VERTEX_POINT('',#278);
#90=VERTEX_POINT('',#280);
#91=VERTEX_POINT('',#284);
#92=VERTEX_POINT('',#287);
#93=VERTEX_POINT('',#288);
#94=VERTEX_POINT('',#293);
#95=VERTEX_POINT('',#297);
#96=VERTEX_POINT('',#301);
#97=EDGE_CURVE('',#83,#83,#73,.T.);
#98=EDGE_CURVE('',#83,#84,#51,.T.);
#99=EDGE_CURVE('',#84,#84,#74,.T.);
#100=EDGE_CURVE('',#85,#85,#75,.T.);
#101=EDGE_CURVE('',#85,#86,#52,.T.);
#102=EDGE_CURVE('',#86,#86,#76,.T.);
#103=EDGE_CURVE('',#87,#88,#53,.T.);
#104=EDGE_CURVE('',#88,#89,#77,.T.);
#105=EDGE_CURVE('',#89,#90,#54,.T.);
#106=EDGE_CURVE('',#87,#90,#78,.T.);
#107=EDGE_CURVE('',#91,#91,#79,.T.);
#108=EDGE_CURVE('',#92,#93,#80,.T.);
#109=EDGE_CURVE('',#92,#89,#55,.T.);
#110=EDGE_CURVE('',#93,#88,#56,.T.);
#111=EDGE_CURVE('',#94,#92,#57,.T.);
#112=EDGE_CURVE('',#94,#90,#58,.T.);
#113=EDGE_CURVE('',#93,#95,#59,.T.);
#114=EDGE_CURVE('',#95,#87,#60,.T.);
#115=EDGE_CURVE('',#96,#96,#81,.T.);
#116=EDGE_CURVE('',#91,#96,#61,.T.);
#117=EDGE_CURVE('',#95,#94,#82,.T.);
#118=ORIENTED_EDGE('',*,*,#97,.F.);
#119=ORIENTED_EDGE('',*,*,#98,.T.);
#120=ORIENTED_EDGE('',*,*,#99,.F.);
#121=ORIENTED_EDGE('',*,*,#98,.F.);
#122=ORIENTED_EDGE('',*,*,#100,.F.);
#123=ORIENTED_EDGE('',*,*,#101,.T.);
#124=ORIENTED_EDGE('',*,*,#102,.F.);
#125=ORIENTED_EDGE('',*,*,#101,.F.);
#126=ORIENTED_EDGE('',*,*,#103,.T.);
#127=ORIENTED_EDGE('',*,*,#104,.T.);
#128=ORIENTED_EDGE('',*,*,#105,.T.);
#129=ORIENTED_EDGE('',*,*,#106,.F.);
#130=ORIENTED_EDGE('',*,*,#100,.T.);
#131=ORIENTED_EDGE('',*,*,#107,.T.);
#132=ORIENTED_EDGE('',*,*,#102,.T.);
#133=ORIENTED_EDGE('',*,*,#108,.F.);
#134=ORIENTED_EDGE('',*,*,#109,.T.);
#135=ORIENTED_EDGE('',*,*,#104,.F.);
#136=ORIENTED_EDGE('',*,*,#110,.F.);
#137=ORIENTED_EDGE('',*,*,#111,.F.);
#138=ORIENTED_EDGE('',*,*,#112,.T.);
#139=ORIENTED_EDGE('',*,*,#105,.F.);
#140=ORIENTED_EDGE('',*,*,#109,.F.);
#141=ORIENTED_EDGE('',*,*,#113,.F.);
#142=ORIENTED_EDGE('',*,*,#110,.T.);
#143=ORIENTED_EDGE('',*,*,#103,.F.);
#144=ORIENTED_EDGE('',*,*,#114,.F.);
#145=ORIENTED_EDGE('',*,*,#115,.F.);
#146=ORIENTED_EDGE('',*,*,#97,.T.);
#147=ORIENTED_EDGE('',*,*,#107,.F.);
#148=ORIENTED_EDGE('',*,*,#116,.T.);
#149=ORIENTED_EDGE('',*,*,#115,.T.);
#150=ORIENTED_EDGE('',*,*,#116,.F.);
#151=ORIENTED_EDGE('',*,*,#114,.T.);
#152=ORIENTED_EDGE('',*,*,#106,.T.);
#153=ORIENTED_EDGE('',*,*,#112,.F.);
#154=ORIENTED_EDGE('',*,*,#117,.F.);
#155=ORIENTED_EDGE('',*,*,#113,.T.);
#156=ORIENTED_EDGE('',*,*,#117,.T.);
#157=ORIENTED_EDGE('',*,*,#111,.T.);
#158=ORIENTED_EDGE('',*,*,#108,.T.);
#159=ORIENTED_EDGE('',*,*,#99,.T.);
#160=CYLINDRICAL_SURFACE('',#188,1.525);
#161=CYLINDRICAL_SURFACE('',#191,1.525);
#162=CYLINDRICAL_SURFACE('',#199,3.75);
#163=CYLINDRICAL_SURFACE('',#205,5.);
#164=ADVANCED_FACE('',(#26),#160,.F.);
#165=ADVANCED_FACE('',(#27),#161,.F.);
#166=ADVANCED_FACE('',(#28,#15),#20,.F.);
#167=ADVANCED_FACE('',(#29,#16),#21,.T.);
#168=ADVANCED_FACE('',(#30),#162,.F.);
#169=ADVANCED_FACE('',(#31),#22,.T.);
#170=ADVANCED_FACE('',(#32),#23,.T.);
#171=ADVANCED_FACE('',(#33,#17),#24,.F.);
#172=ADVANCED_FACE('',(#34,#18),#163,.T.);
#173=ADVANCED_FACE('',(#35,#19),#25,.T.);
#174=CLOSED_SHELL('',(#164,#165,#166,#167,#168,#169,#170,#171,#172,#173));
#175=DERIVED_UNIT_ELEMENT(#177,1.);
#176=DERIVED_UNIT_ELEMENT(#312,-3.);
#177=(
MASS_UNIT()
NAMED_UNIT(*)
SI_UNIT(.KILO.,.GRAM.)
);
#178=DERIVED_UNIT((#175,#176));
#179=MEASURE_REPRESENTATION_ITEM('density measure',
POSITIVE_RATIO_MEASURE(7850.),#178);
#180=PROPERTY_DEFINITION_REPRESENTATION(#185,#182);
#181=PROPERTY_DEFINITION_REPRESENTATION(#186,#183);
#182=REPRESENTATION('material name',(#184),#309);
#183=REPRESENTATION('density',(#179),#309);
#184=DESCRIPTIVE_REPRESENTATION_ITEM('Steel','Steel');
#185=PROPERTY_DEFINITION('material property','material name',#319);
#186=PROPERTY_DEFINITION('material property','density of part',#319);
#187=AXIS2_PLACEMENT_3D('',#261,#208,#209);
#188=AXIS2_PLACEMENT_3D('',#262,#210,#211);
#189=AXIS2_PLACEMENT_3D('',#264,#212,#213);
#190=AXIS2_PLACEMENT_3D('',#267,#215,#216);
#191=AXIS2_PLACEMENT_3D('',#268,#217,#218);
#192=AXIS2_PLACEMENT_3D('',#270,#219,#220);
#193=AXIS2_PLACEMENT_3D('',#273,#222,#223);
#194=AXIS2_PLACEMENT_3D('',#274,#224,#225);
#195=AXIS2_PLACEMENT_3D('',#279,#227,#228);
#196=AXIS2_PLACEMENT_3D('',#282,#230,#231);
#197=AXIS2_PLACEMENT_3D('',#283,#232,#233);
#198=AXIS2_PLACEMENT_3D('',#285,#234,#235);
#199=AXIS2_PLACEMENT_3D('',#286,#236,#237);
#200=AXIS2_PLACEMENT_3D('',#289,#238,#239);
#201=AXIS2_PLACEMENT_3D('',#292,#242,#243);
#202=AXIS2_PLACEMENT_3D('',#296,#246,#247);
#203=AXIS2_PLACEMENT_3D('',#300,#250,#251);
#204=AXIS2_PLACEMENT_3D('',#302,#252,#253);
#205=AXIS2_PLACEMENT_3D('',#303,#254,#255);
#206=AXIS2_PLACEMENT_3D('',#305,#257,#258);
#207=AXIS2_PLACEMENT_3D('',#306,#259,#260);
#208=DIRECTION('axis',(0.,0.,1.));
#209=DIRECTION('refdir',(1.,0.,0.));
#210=DIRECTION('center_axis',(0.,0.,1.));
#211=DIRECTION('ref_axis',(-1.,0.,0.));
#212=DIRECTION('center_axis',(0.,0.,1.));
#213=DIRECTION('ref_axis',(-1.,0.,0.));
#214=DIRECTION('',(0.,0.,1.));
#215=DIRECTION('center_axis',(0.,0.,-1.));
#216=DIRECTION('ref_axis',(-1.,0.,0.));
#217=DIRECTION('center_axis',(0.,0.,1.));
#218=DIRECTION('ref_axis',(-1.,0.,0.));
#219=DIRECTION('center_axis',(0.,0.,1.));
#220=DIRECTION('ref_axis',(-1.,0.,0.));
#221=DIRECTION('',(0.,0.,1.));
#222=DIRECTION('center_axis',(0.,0.,-1.));
#223=DIRECTION('ref_axis',(-1.,0.,0.));
#224=DIRECTION('center_axis',(0.,0.,1.));
#225=DIRECTION('ref_axis',(-1.,0.,0.));
#226=DIRECTION('',(0.,1.,0.));
#227=DIRECTION('center_axis',(0.,0.,-1.));
#228=DIRECTION('ref_axis',(1.,0.,0.));
#229=DIRECTION('',(0.,1.,0.));
#230=DIRECTION('center_axis',(0.,0.,1.));
#231=DIRECTION('ref_axis',(-1.,0.,0.));
#232=DIRECTION('center_axis',(0.,0.,1.));
#233=DIRECTION('ref_axis',(-1.,0.,0.));
#234=DIRECTION('center_axis',(0.,0.,1.));
#235=DIRECTION('ref_axis',(-1.,0.,0.));
#236=DIRECTION('center_axis',(0.,0.,1.));
#237=DIRECTION('ref_axis',(-1.,1.22464679914735E-16,0.));
#238=DIRECTION('center_axis',(0.,0.,1.));
#239=DIRECTION('ref_axis',(1.,0.,0.));
#240=DIRECTION('',(0.,0.,1.));
#241=DIRECTION('',(0.,0.,1.));
#242=DIRECTION('center_axis',(1.,0.,0.));
#243=DIRECTION('ref_axis',(0.,1.,0.));
#244=DIRECTION('',(0.,-1.,0.));
#245=DIRECTION('',(0.,0.,1.));
#246=DIRECTION('center_axis',(1.,0.,0.));
#247=DIRECTION('ref_axis',(0.,1.,0.));
#248=DIRECTION('',(0.,-1.,0.));
#249=DIRECTION('',(0.,0.,1.));
#250=DIRECTION('center_axis',(0.,0.,1.));
#251=DIRECTION('ref_axis',(1.,0.,0.));
#252=DIRECTION('center_axis',(0.,0.,1.));
#253=DIRECTION('ref_axis',(1.,0.,0.));
#254=DIRECTION('center_axis',(0.,0.,1.));
#255=DIRECTION('ref_axis',(1.,0.,0.));
#256=DIRECTION('',(0.,0.,-1.));
#257=DIRECTION('center_axis',(0.,0.,1.));
#258=DIRECTION('ref_axis',(1.,0.,0.));
#259=DIRECTION('center_axis',(0.,0.,1.));
#260=DIRECTION('ref_axis',(1.,0.,0.));
#261=CARTESIAN_POINT('',(0.,0.,0.));
#262=CARTESIAN_POINT('Origin',(0.,0.,20.625));
#263=CARTESIAN_POINT('',(1.525,1.86758636869971E-16,0.));
#264=CARTESIAN_POINT('Origin',(0.,0.,0.));
#265=CARTESIAN_POINT('',(1.525,-1.86758636869971E-16,2.5));
#266=CARTESIAN_POINT('',(1.525,1.86758636869971E-16,20.625));
#267=CARTESIAN_POINT('Origin',(0.,0.,2.5));
#268=CARTESIAN_POINT('Origin',(0.,0.,36.375));
#269=CARTESIAN_POINT('',(1.525,1.86758636869971E-16,35.));
#270=CARTESIAN_POINT('Origin',(0.,0.,35.));
#271=CARTESIAN_POINT('',(1.525,-1.86758636869971E-16,37.5));
#272=CARTESIAN_POINT('',(1.525,1.86758636869971E-16,36.375));
#273=CARTESIAN_POINT('Origin',(0.,0.,37.5));
#274=CARTESIAN_POINT('Origin',(0.,0.,35.));
#275=CARTESIAN_POINT('',(0.,-5.,35.));
#276=CARTESIAN_POINT('',(0.,-3.75,35.));
#277=CARTESIAN_POINT('',(0.,6.00000008940697,35.));
#278=CARTESIAN_POINT('',(0.,3.75,35.));
#279=CARTESIAN_POINT('Origin',(0.,0.,35.));
#280=CARTESIAN_POINT('',(0.,5.,35.));
#281=CARTESIAN_POINT('',(0.,6.00000008940697,35.));
#282=CARTESIAN_POINT('Origin',(0.,0.,35.));
#283=CARTESIAN_POINT('Origin',(0.,0.,37.5));
#284=CARTESIAN_POINT('',(-5.,-6.12323399573677E-16,37.5));
#285=CARTESIAN_POINT('Origin',(0.,0.,37.5));
#286=CARTESIAN_POINT('Origin',(0.,0.,0.));
#287=CARTESIAN_POINT('',(0.,3.75,2.5));
#288=CARTESIAN_POINT('',(0.,-3.75,2.5));
#289=CARTESIAN_POINT('Origin',(0.,0.,2.5));
#290=CARTESIAN_POINT('',(0.,3.75,0.));
#291=CARTESIAN_POINT('',(0.,-3.75,0.));
#292=CARTESIAN_POINT('Origin',(0.,3.75,0.));
#293=CARTESIAN_POINT('',(0.,5.,2.5));
#294=CARTESIAN_POINT('',(0.,1.875,2.5));
#295=CARTESIAN_POINT('',(0.,5.,0.));
#296=CARTESIAN_POINT('Origin',(0.,-5.,0.));
#297=CARTESIAN_POINT('',(0.,-5.,2.5));
#298=CARTESIAN_POINT('',(0.,-2.5,2.5));
#299=CARTESIAN_POINT('',(0.,-5.,0.));
#300=CARTESIAN_POINT('Origin',(0.,0.,0.));
#301=CARTESIAN_POINT('',(-5.,-6.12323399573677E-16,0.));
#302=CARTESIAN_POINT('Origin',(0.,0.,0.));
#303=CARTESIAN_POINT('Origin',(0.,0.,0.));
#304=CARTESIAN_POINT('',(-5.,-6.12323399573677E-16,0.));
#305=CARTESIAN_POINT('Origin',(0.,0.,2.5));
#306=CARTESIAN_POINT('Origin',(0.,0.,2.5));
#307=UNCERTAINTY_MEASURE_WITH_UNIT(LENGTH_MEASURE(0.01),#311,
'DISTANCE_ACCURACY_VALUE',
'Maximum model space distance between geometric entities at asserted c
onnectivities');
#308=UNCERTAINTY_MEASURE_WITH_UNIT(LENGTH_MEASURE(0.01),#311,
'DISTANCE_ACCURACY_VALUE',
'Maximum model space distance between geometric entities at asserted c
onnectivities');
#309=(
GEOMETRIC_REPRESENTATION_CONTEXT(3)
GLOBAL_UNCERTAINTY_ASSIGNED_CONTEXT((#307))
GLOBAL_UNIT_ASSIGNED_CONTEXT((#311,#313,#314))
REPRESENTATION_CONTEXT('','3D')
);
#310=(
GEOMETRIC_REPRESENTATION_CONTEXT(3)
GLOBAL_UNCERTAINTY_ASSIGNED_CONTEXT((#308))
GLOBAL_UNIT_ASSIGNED_CONTEXT((#311,#313,#314))
REPRESENTATION_CONTEXT('','3D')
);
#311=(
LENGTH_UNIT()
NAMED_UNIT(*)
SI_UNIT(.MILLI.,.METRE.)
);
#312=(
LENGTH_UNIT()
NAMED_UNIT(*)
SI_UNIT($,.METRE.)
);
#313=(
NAMED_UNIT(*)
PLANE_ANGLE_UNIT()
SI_UNIT($,.RADIAN.)
);
#314=(
NAMED_UNIT(*)
SI_UNIT($,.STERADIAN.)
SOLID_ANGLE_UNIT()
);
#315=SHAPE_DEFINITION_REPRESENTATION(#316,#317);
#316=PRODUCT_DEFINITION_SHAPE('',$,#319);
#317=SHAPE_REPRESENTATION('',(#187),#309);
#318=PRODUCT_DEFINITION_CONTEXT('part definition',#323,'design');
#319=PRODUCT_DEFINITION('2026-06-24-14-55-54-877','support',#320,#318);
#320=PRODUCT_DEFINITION_FORMATION('',$,#325);
#321=PRODUCT_RELATED_PRODUCT_CATEGORY('support','support',(#325));
#322=APPLICATION_PROTOCOL_DEFINITION('international standard',
'automotive_design',2009,#323);
#323=APPLICATION_CONTEXT(
'Core Data for Automotive Mechanical Design Process');
#324=PRODUCT_CONTEXT('part definition',#323,'mechanical');
#325=PRODUCT('2026-06-24-14-55-54-877','support',$,(#324));
#326=PRESENTATION_STYLE_ASSIGNMENT((#327));
#327=SURFACE_STYLE_USAGE(.BOTH.,#328);
#328=SURFACE_SIDE_STYLE('',(#329));
#329=SURFACE_STYLE_FILL_AREA(#330);
#330=FILL_AREA_STYLE('Steel - Satin',(#331));
#331=FILL_AREA_STYLE_COLOUR('Steel - Satin',#332);
#332=COLOUR_RGB('Steel - Satin',0.627450980392157,0.627450980392157,0.627450980392157);
ENDSEC;
END-ISO-10303-21;
